<?xml version="1.0" standalone="no"?>
<!DOCTYPE svg PUBLIC "-//W3C//DTD SVG 20010904//EN"
 "http://www.w3.org/TR/2001/REC-SVG-20010904/DTD/svg10.dtd">
<svg version="1.0" xmlns="http://www.w3.org/2000/svg"
 width="700.000000pt" height="700.000000pt" viewBox="0 0 700.000000 700.000000"
 preserveAspectRatio="xMidYMid meet">
<metadata>
Created by potrace 1.14, written by Peter Selinger 2001-2017
</metadata>
<g transform="translate(0.000000,700.000000) scale(0.100000,-0.100000)"
fill="#000000" stroke="none">
<path d="M2754 5804 c-147 -25 -144 -22 -649 -526 l-460 -458 -240 240 c-132
132 -254 247 -271 255 -43 20 -70 19 -120 -5 -73 -36 -98 -134 -50 -198 13
-18 126 -135 252 -260 126 -126 234 -235 241 -244 10 -11 9 -25 -3 -63 -15
-52 -21 -159 -10 -213 11 -55 41 -126 73 -173 17 -24 400 -413 852 -864 451
-451 821 -823 821 -827 0 -3 -163 -169 -362 -368 l-361 -362 194 -194 c107
-107 197 -193 202 -191 4 1 169 164 367 362 l360 359 392 -392 c216 -216 411
-404 432 -419 96 -64 243 -90 360 -63 125 28 127 30 683 584 513 512 523 522
560 601 34 73 38 88 40 176 3 104 -5 145 -45 229 -22 47 -136 165 -755 786
l-728 731 360 360 c199 199 361 365 361 369 0 5 -87 96 -193 201 l-193 193
-359 -360 c-198 -198 -364 -360 -369 -360 -6 0 -235 225 -510 500 -276 275
-518 511 -538 525 -93 63 -218 89 -334 69z m439 -485 c26 -13 144 -123 309
-289 305 -305 319 -323 313 -440 -2 -57 -14 -99 -32 -119 -2 -3 -35 26 -72 63
l-69 69 0 -148 1 -148 -424 -422 c-399 -396 -427 -423 -478 -438 -68 -21 -115
-21 -182 0 -50 16 -76 39 -330 291 -313 311 -324 325 -324 446 0 55 6 82 24
118 29 57 970 1000 1016 1019 87 34 177 33 248 -2z m1190 -1241 c12 -6 35 -25
50 -42 38 -42 32 -95 -15 -143 l-33 -33 -75 75 -74 75 29 31 c45 47 79 58 118
37z m-741 -250 c3 -8 35 -13 99 -14 135 -2 131 -1 170 -37 225 -203 85 -557
-217 -549 -106 3 -215 76 -264 177 -71 149 -3 342 145 411 58 27 62 28 67 12z
m688 -19 c0 -10 -117 -119 -129 -120 -6 -1 -17 -2 -23 -3 -48 -7 -118 55 -118
103 l0 27 135 -1 c74 0 135 -3 135 -6z m449 -118 c54 -38 76 -92 59 -142 -13
-37 -257 -276 -291 -284 -39 -10 -71 1 -111 38 -38 37 -52 73 -42 115 9 36
262 288 296 294 33 6 60 0 89 -21z m310 -310 c10 -6 31 -24 45 -42 36 -42 35
-95 -2 -140 -45 -55 -243 -249 -256 -250 -6 0 -22 -2 -36 -4 -31 -3 -83 27
-110 65 -32 45 -26 93 18 142 72 81 227 230 247 238 24 9 67 5 94 -9z m-1778
-12 c30 -21 57 -64 53 -86 -1 -7 -2 -21 -3 -32 -1 -18 -207 -233 -242 -251
-74 -40 -180 54 -150 133 10 26 185 208 231 240 33 23 76 21 111 -4z m1060
-125 c43 -42 54 -82 35 -127 -13 -30 -254 -276 -273 -278 -4 0 -18 -2 -29 -5
-20 -3 -22 1 -22 44 -1 88 4 82 -61 82 -51 0 -59 2 -56 18 2 9 4 21 4 26 2 18
246 258 276 271 44 20 84 10 126 -31z m-860 -75 c65 -46 69 -112 12 -171 l-37
-38 -95 0 -95 0 47 -48 48 -49 -41 -36 c-56 -51 -96 -51 -149 2 -42 42 -49 76
-25 121 7 14 62 73 122 133 100 97 113 107 147 107 21 0 49 -9 66 -21z m1883
-103 c59 -24 95 -89 81 -143 -9 -39 -251 -281 -290 -292 -55 -14 -116 18 -148
81 -29 57 -14 83 134 231 147 147 156 151 223 123z m-712 -133 c55 -52 66 -99
34 -148 -28 -43 -243 -249 -272 -261 -41 -17 -72 -8 -116 34 -39 37 -55 83
-44 120 8 24 253 271 281 283 33 14 86 2 117 -28z m324 -327 c48 -48 56 -84
30 -134 -8 -15 -69 -81 -135 -147 l-121 -120 -53 0 c-46 0 -56 4 -86 35 -27
27 -35 45 -39 82 l-4 47 118 121 c133 137 164 160 213 160 26 0 43 -9 77 -44z
m-765 -90 c41 -28 71 -82 64 -116 -7 -36 -25 -58 -154 -187 -137 -135 -165
-149 -224 -109 -88 61 -97 144 -22 208 19 16 23 14 98 -60 l77 -77 1 35 c0 19
1 90 1 158 l1 122 29 25 c38 32 83 32 129 1z m1081 -224 c39 -37 55 -83 43
-121 -8 -27 -260 -278 -286 -286 -71 -23 -174 62 -163 133 7 39 17 52 148 182
155 154 183 164 258 92z m-752 -102 c19 -17 39 -43 45 -57 23 -57 10 -81 -134
-225 l-136 -137 -48 3 c-40 2 -54 9 -85 39 -33 33 -37 43 -37 86 l0 49 125
127 c69 69 134 130 145 135 43 19 90 11 125 -20z"/>
</g>
</svg>
